<svg xmlns="http://www.w3.org/2000/svg" viewBox="0 0 512 512"><title>Healthy_Food</title><g id="artwork"><g id="_06_healthy_food" data-name="06_healthy_food"><path d="M422.22,153.27,385.69,94.68a20.11,20.11,0,0,1-3-10.64h0c0-10.82-8.47-19.6-18.91-19.6h-94.4c-10.44,0-18.91,8.78-18.91,19.6v.51a20.17,20.17,0,0,1-2.55,9.83l-33.17,59.25a20.19,20.19,0,0,0-2.56,9.68l-1,138.06A51,51,0,0,0,180.48,291c-1.26,0-2.54.05-3.8.15a50.74,50.74,0,0,0-21.92,6.89,8.63,8.63,0,0,1-8.78,0,50.78,50.78,0,0,0-21.92-6.89c-1.26-.1-2.54-.15-3.81-.15-15.21,0-29.48,6.83-40.17,19.23-11.32,13.12-17.06,31-15.75,49.16.94,13.1,5.94,37.19,14.67,59.11,11.45,28.73,25.1,43.3,40.59,43.3,8.59,0,17.28-5.71,25-11.31a9.65,9.65,0,0,1,11.6.14c7.33,5.55,15.16,11.17,23.67,11.17,10.91,0,21-7.25,30.21-21.6v1.41c-.07,9.23,6.06,17.36,14.78,19.28a45.33,45.33,0,0,0,9.73,1c18.31,0,140-1.28,171.57-1.62a18.48,18.48,0,0,0,15.64-8.88,22.44,22.44,0,0,0,3.46-11.74V163.9A20.17,20.17,0,0,0,422.22,153.27Z" style="fill:#dcd3d4"/><path d="M287.06,56.12V80.61L246,147.94V421.32c-.07,9.63,8,17.93,17.67,18.34l1.19,0H445.5A16,16,0,0,0,461.31,426a55.23,55.23,0,0,0,.55-7.76V146.53L419.28,80.61V56.12Z" style="fill:#ffeef0"/><path d="M366.1,114.19a19.76,19.76,0,1,1-19.76-19.76A19.76,19.76,0,0,1,366.1,114.19Z" style="fill:#f3b5af"/><path d="M348.66,114.19a15.91,15.91,0,1,1-15.91-15.91A15.91,15.91,0,0,1,348.66,114.19Z" style="fill:#3d5890"/><polygon points="383.66 146.53 249.13 293.62 248.82 351.33 383.66 207.71 383.66 146.53" style="fill:#fff"/><rect x="245.99" y="223.64" width="137.67" height="97.53" style="fill:#e08476"/><polygon points="293.6 221.71 245.99 272.4 245.99 295.37 315.35 221.71 293.6 221.71" style="fill:#f3b5af"/><polygon points="383.66 250.99 323.25 315.31 323.25 321.17 383.66 321.17 383.66 250.99" style="fill:#f3b5af"/><polygon points="383.66 321.17 279.54 413.76 246.73 413.93 248.82 321.17 383.66 321.17" style="fill:#fff"/><rect x="287.06" y="56.12" width="132.22" height="24.49" style="fill:#f3b5af"/><rect x="383.66" y="146.53" width="78.2" height="267.4" style="fill:#f3b5af"/><polygon points="419.28 89.36 383.66 146.53 461.86 146.53 419.28 89.36" style="fill:#e08476"/><path d="M210,438.58c-8.51,0-16.34-5.62-23.67-11.17a9.65,9.65,0,0,0-11.6-.14c-7.73,5.59-16.42,11.31-25,11.31-15.48,0-29.14-14.57-40.59-43.3-8.73-21.92-13.73-46-14.67-59.11-1.31-18.12,4.43-36,15.75-49.16,10.7-12.4,25-19.23,40.17-19.23,1.27,0,2.55.05,3.81.15a50.74,50.74,0,0,1,21.92,6.89,8.63,8.63,0,0,0,8.78,0,50.74,50.74,0,0,1,21.92-6.89c1.26-.1,2.54-.15,3.81-.15,15.2,0,29.47,6.83,40.17,19.23,11.32,13.12,17.06,31,15.75,49.16-1.14,15.82-7.47,40.2-15.38,59.28C239.24,424.07,225.39,438.58,210,438.58Z" style="fill:#f2463e"/><path d="M264.67,336.16c-1.14,15.83-7.47,40.21-15.38,59.29-11.87,28.62-25.72,43.13-41.16,43.13-6.6,0-12.79-3.38-18.66-7.49,28.61-16.16,48.16-48.68,48.16-86.17,0-31.26-13.59-59.07-34.7-76.8.67-.08,1.34-.15,2-.2,1.26-.09,2.54-.14,3.8-.14,15.21,0,29.48,6.83,40.18,19.23C260.24,300.13,266,318.05,264.67,336.16Z" style="fill:#dc4038"/><rect x="76.18" y="223.7" width="12" height="34.63" transform="translate(-146.35 128.69) rotate(-45)" style="fill:#142546"/><rect x="104.54" y="215.71" width="38.96" height="12" transform="translate(-109.56 321.62) rotate(-83.94)" style="fill:#142546"/><rect x="44.66" y="276.38" width="38.96" height="12" transform="translate(-29.46 8.35) rotate(-6.06)" style="fill:#142546"/><path d="M332.75,136.1a21.91,21.91,0,1,1,21.91-21.91A21.94,21.94,0,0,1,332.75,136.1Zm0-31.82a9.91,9.91,0,1,0,9.91,9.91A9.91,9.91,0,0,0,332.75,104.28Z" style="fill:#142546"/><path d="M464,140.35l-38.74-57V59.86a9.75,9.75,0,0,0-9.74-9.74H290.8a9.75,9.75,0,0,0-9.74,9.74v19L243.7,138.4a22.2,22.2,0,0,0-3.4,11.83v29.36h12V152.53H377.66v63.18H252.3v-17.8h-12v72.34a56.52,56.52,0,0,0-29.73-8.47c-1.42,0-2.86.06-4.27.16a56.58,56.58,0,0,0-21.63,6.14c.11-14.83,2.69-35,13.27-53.27l-10.38-6c-11.56,19.94-14.66,41.42-14.95,57.6a56.43,56.43,0,0,0-18-4.45c-1.41-.1-2.85-.16-4.27-.16-17,0-32.86,7.57-44.71,21.31C93.27,297.41,87,316.91,88.42,336.6c1,13.55,6.12,38.39,15.09,60.9,12.44,31.24,28,47.08,46.16,47.08,10.47,0,20.21-6.43,28.53-12.46a3.65,3.65,0,0,1,4.46.08c6.9,5.22,16.36,12.38,27.29,12.38s21.23-5.89,30.4-17.56c.58,9.48,8.22,17,17.55,17H450.26c9.71,0,17.6-8.15,17.6-18.16v-273A22.13,22.13,0,0,0,464,140.35Zm-69.14.18,24.87-44,29.89,44Zm-13.79,0H256.53l33.84-53.92h121.2Zm-88-78.41H413.28V74.61H293.06Zm127.16,90.41v186.9h12V152.53h23.63c0,.11,0,.21,0,.32V407.93H432.22v-47h-12v47H389.66V152.53ZM252.3,407.42q2.22-4.56,4.35-9.67c8.13-19.61,14.64-44.75,15.83-61.15a76.14,76.14,0,0,0,.07-9.43H377.66v80.76H252.3Zm0-179.71H377.66v87.46H271a72.12,72.12,0,0,0-15.71-32.08c-1-1.12-2-2.18-3-3.22ZM210,432.58c-6.38,0-12.86-4.51-20-9.95a15.65,15.65,0,0,0-18.75-.22c-6.78,4.92-14.6,10.17-21.48,10.17-15.93,0-27.83-21.49-35-39.52-8.5-21.33-13.35-44.66-14.27-57.33-1.19-16.54,4-32.87,14.31-44.8,9.54-11.06,22.2-17.15,35.63-17.15,1.12,0,2.24,0,3.36.13A44.92,44.92,0,0,1,173,280c.28,3.68.66,6.67,1,8.78a37,37,0,0,1-10.17-3.44L158.31,296a48.25,48.25,0,0,0,44.28,0l-5.51-10.66a36.29,36.29,0,0,1-10.91,3.58c-.22-1.29-.63-4-1-7.7a14.13,14.13,0,0,0,2.66-1.21,45.06,45.06,0,0,1,19.36-6.09c1.11-.09,2.23-.13,3.35-.13,13.43,0,26.09,6.09,35.63,17.15,10.29,11.93,15.5,28.26,14.31,44.8-1.1,15.26-7.25,38.87-14.94,57.42C238.1,411.14,225.87,432.58,210,432.58ZM257.9,432a5.9,5.9,0,0,1-5.6-6.16v-5.95H377.66V432Zm192.36,0h-60.6V419.93h66.2v5.95A5.9,5.9,0,0,1,450.26,432Z" style="fill:#142546"/><path d="M244.29,358.82l-11.64-2.92c.83-3.3,1.53-6.48,2.08-9.45l11.8,2.2C245.93,351.86,245.18,355.28,244.29,358.82Z" style="fill:#142546"/><path d="M248,338.22l-12-.93a42.39,42.39,0,0,0-13-34.36l8.23-8.73A54.4,54.4,0,0,1,248,338.22Z" style="fill:#142546"/></g></g></svg>